<?xml version="1.0" encoding="UTF-8"?>
<svg version="1.1" xmlns="http://www.w3.org/2000/svg" width="256" height="256">
<path d="M0 0 C1.2271875 0.3403125 2.454375 0.680625 3.71875 1.03125 C22.95037828 6.91199584 39.50143499 17.10959627 54 31 C54.74765625 31.68449219 55.4953125 32.36898437 56.265625 33.07421875 C76.99895272 52.6838871 89.03783292 82.08808969 90.38671875 110.359375 C91.32411406 145.48183764 79.5785875 175.56211871 55.71923828 201.2746582 C34.11789139 223.77464825 2.40842375 236.54243152 -28.49829102 237.28564453 C-62.92168671 237.62940972 -94.17852166 225.15718124 -118.8984375 201.1953125 C-142.26581979 177.65300283 -153.27720001 146.44087106 -153.31689453 113.6862793 C-152.96110273 80.8062854 -138.68194875 52.03910561 -115.59057617 29.10253906 C-100.90034676 15.07066776 -82.49739238 5.4068399 -63 0 C-61.8759375 -0.3196875 -60.751875 -0.639375 -59.59375 -0.96875 C-41.21138066 -5.28461063 -18.16359102 -5.16579194 0 0 Z " fill="#2A2B7D" transform="translate(159,12)"/>
<path d="M0 0 C-0.67804688 0.47308594 -1.35609375 0.94617188 -2.0546875 1.43359375 C-11.47678256 8.12824024 -20.78891612 15.08167542 -27 25 C-27.61875 25.94166016 -27.61875 25.94166016 -28.25 26.90234375 C-32.94883988 35.40267561 -32.17530096 47.31758477 -29.9375 56.5625 C-27.81039981 63.16247442 -24.8757204 69.47553785 -22.00878906 75.78076172 C-20.57711812 78.93029921 -19.16174994 82.08701152 -17.75073242 85.24584961 C-17.05897844 86.79375835 -16.36399688 88.34023009 -15.6652832 89.88500977 C-9.34150161 103.98526879 -9.85701403 117.81171225 -10 133 C-8.86966702 131.75482035 -7.74594964 130.50363348 -6.625 129.25 C-5.99851562 128.55390625 -5.37203125 127.8578125 -4.7265625 127.140625 C0.23542151 120.98866292 -0.49092562 114.62261754 -1 107 C-1.76197584 102.22851775 -2.84682126 97.56563244 -4 92.875 C-7.37662168 79.04910312 -9.10740381 67.8467158 -2 55 C7.48041709 39.79263708 25.06027098 25.26656477 43 21 C45.2734375 21.41015625 45.2734375 21.41015625 47 22 C45.89591797 22.79664063 45.89591797 22.79664063 44.76953125 23.609375 C43.79371094 24.31578125 42.81789062 25.0221875 41.8125 25.75 C40.84957031 26.44609375 39.88664062 27.1421875 38.89453125 27.859375 C32.82153383 32.24241812 32.82153383 32.24241812 28.25 38.0625 C27.84265625 38.73410156 27.4353125 39.40570313 27.015625 40.09765625 C22.56035006 48.44272893 24.00774627 61.6748405 26.53515625 70.54467773 C27.57236593 73.7529629 28.74664382 76.86835516 30 80 C30.34933594 80.89847656 30.69867188 81.79695313 31.05859375 82.72265625 C33.67897171 88.62570549 37.58986095 93.41939349 41.62597656 98.40014648 C54.48793222 114.43014588 63.92409457 130.98009619 62 152 C58.75906528 170.9570851 48.22041431 187.34851043 33 199 C25.25277114 204.22573604 16.98780455 208.3808545 8 211 C6.89398438 211.33644531 6.89398438 211.33644531 5.765625 211.6796875 C-17.27052898 217.4784435 -41.89279561 209.8456329 -61.85424805 198.31347656 C-70.91582412 192.80098555 -80.82292491 185.43220531 -86 176 C-86 175.34 -86 174.68 -86 174 C-84.9378125 173.50371094 -83.875625 173.00742188 -82.78125 172.49609375 C-69.77441924 166.29870336 -60.58147338 160.3240191 -54.96484375 146.44140625 C-50.40299321 132.16175316 -53.37457104 119.78846947 -58.375 106.3125 C-63.00446122 93.56688687 -66.40782182 81.63116024 -66.3125 67.9375 C-66.30686035 67.07189453 -66.3012207 66.20628906 -66.29541016 65.31445312 C-66.1721425 58.81666109 -65.48394826 53.05817915 -63 47 C-62.62101562 46.04222656 -62.24203125 45.08445313 -61.8515625 44.09765625 C-58.05160959 35.56423599 -52.5479811 29.48333248 -46 23 C-45.30261719 22.28070313 -44.60523438 21.56140625 -43.88671875 20.8203125 C-33.40470873 10.68431057 -19.80536269 4.20418269 -6 0 C-3 -1 -3 -1 0 0 Z " fill="#EB1B2E" transform="translate(139,24)"/>
</svg>
