<?xml version="1.0" encoding="UTF-8"?>
<svg version="1.1" xmlns="http://www.w3.org/2000/svg" width="192" height="192">
<path d="M0 0 C17.96061087 15.56534261 29.80616809 36.39038884 32.5234375 60.2109375 C34.0525606 85.85591786 27.4630165 109.53194967 10.47802734 129.046875 C-5.58362619 146.80426957 -27.43683085 158.39107991 -51.4765625 160.2109375 C-73.71158178 161.31907497 -94.39571859 156.67476196 -112.4765625 143.2109375 C-113.31058594 142.60765625 -114.14460938 142.004375 -115.00390625 141.3828125 C-134.89120709 126.30646117 -146.41311325 104.66918194 -150.1640625 80.2109375 C-152.62545303 55.02096205 -145.04551132 31.00572019 -129.1796875 11.35546875 C-122.17553134 3.01198374 -113.90825471 -3.41842149 -104.4765625 -8.7890625 C-103.58839844 -9.31242187 -102.70023438 -9.83578125 -101.78515625 -10.375 C-69.78960547 -27.90802783 -27.91683061 -23.03969854 0 0 Z " fill="#2A2B7D" transform="translate(154.4765625,26.7890625)"/>
<path d="M0 0 C-1.6209213 1.17232685 -3.24686833 2.3377077 -4.875 3.5 C-5.77992187 4.1496875 -6.68484375 4.799375 -7.6171875 5.46875 C-10 7 -10 7 -12 7 C-12 7.66 -12 8.32 -12 9 C-12.886875 9.680625 -13.77375 10.36125 -14.6875 11.0625 C-19.57427068 14.95338851 -22.86029694 20.86222413 -24 27 C-24.11556954 28.58034628 -24.17488443 30.16548381 -24.1875 31.75 C-24.20167969 32.54921875 -24.21585938 33.3484375 -24.23046875 34.171875 C-23.63817988 41.43996216 -20.99793516 47.82120509 -18.125 54.4375 C-17.78597656 55.23220703 -17.44695312 56.02691406 -17.09765625 56.84570312 C-15.07116179 61.58061128 -12.98385226 66.28506077 -10.84594727 70.97070312 C-7.29530468 79.48814646 -7.42351917 88.91662825 -7 98 C-3.16246056 94.28625215 -1.83147686 92.47487684 -1.6875 87.125 C-1.70898525 81.1879095 -2.75794568 75.71085191 -4 69.9375 C-8.01012608 50.95178476 -8.01012608 50.95178476 -2.6796875 41.48046875 C4.16377587 31.374424 12.53471275 24.63202004 23.25 19.0625 C23.85287842 18.74321533 24.45575684 18.42393066 25.0769043 18.0949707 C27.70238277 16.78717277 29.46616852 15.93197954 32.421875 16.30859375 C32.94265625 16.53675781 33.4634375 16.76492187 34 17 C33.45730469 17.39832031 32.91460937 17.79664062 32.35546875 18.20703125 C31.64003906 18.73683594 30.92460937 19.26664063 30.1875 19.8125 C29.47980469 20.33457031 28.77210938 20.85664062 28.04296875 21.39453125 C25.99125475 22.93106467 25.99125475 22.93106467 24.36328125 24.69921875 C23 26 23 26 21 26 C16.46403696 37.18870883 16.6950711 47.75775438 21.02612305 58.94165039 C23.9735074 65.75123836 28.44215394 71.31620625 33.015625 77.09765625 C41.60725361 88.06703176 47.58135028 99.75137505 46 114 C42.39631797 129.33173651 34.8985694 141.89870137 21.6875 150.6875 C7.56360528 159.31661924 -6.97079527 162.32939282 -23.15527344 158.51245117 C-38.45812644 154.56269344 -54.83792189 147.58901494 -64 134 C-64.68359375 131.76171875 -64.68359375 131.76171875 -65 130 C-63.58847656 129.36384766 -63.58847656 129.36384766 -62.1484375 128.71484375 C-53.58200837 124.73163203 -47.30107813 121.2557154 -43.1875 112.375 C-37.77780604 97.00008031 -42.74453038 84.28699887 -48.15209961 69.67797852 C-50.03788199 63.72199035 -50.21088383 57.87274379 -50.25 51.6875 C-50.270625 50.88376953 -50.29125 50.08003906 -50.3125 49.25195312 C-50.39177461 36.93466119 -44.83043119 26.77404934 -36.5 17.9375 C-28.98339776 10.77024509 -11.05921669 -4.18027808 0 0 Z " fill="#EA1B2E" transform="translate(105,18)"/>
</svg>
