<?xml version="1.0" encoding="UTF-8"?>
<svg version="1.1" xmlns="http://www.w3.org/2000/svg" width="512" height="512">
<path d="M0 0 C1.06375854 0.00021149 2.12751709 0.00042297 3.22351074 0.00064087 C19.39780575 0.03274359 34.85877323 0.79108177 50.6875 4.375 C51.54972168 4.55691895 52.41194336 4.73883789 53.30029297 4.92626953 C90.25034379 12.77947122 124.45055964 29.55796242 153.6875 53.375 C154.71617187 54.2 155.74484375 55.025 156.8046875 55.875 C169.65233141 66.34315853 181.67894833 78.1526932 191.6875 91.375 C192.10273926 91.91382812 192.51797852 92.45265625 192.94580078 93.0078125 C216.88774928 124.15067515 232.74495838 159.71338502 239.6875 198.375 C239.85121094 199.25849121 240.01492188 200.14198242 240.18359375 201.05224609 C244.73115526 226.51953014 244.41363632 253.96913548 239.6875 279.375 C239.51589355 280.31698242 239.34428711 281.25896484 239.16748047 282.22949219 C230.15547558 330.37405452 206.45114873 372.31607063 172.6875 407.375 C171.55828125 408.56609375 171.55828125 408.56609375 170.40625 409.78125 C165.22598397 415.13136082 159.52156971 419.7586093 153.6875 424.375 C152.23923828 425.54869141 152.23923828 425.54869141 150.76171875 426.74609375 C108.26720664 460.49332383 55.33842292 477.8533979 1.3125 477.75 C-0.28754883 477.74918427 -0.28754883 477.74918427 -1.91992188 477.74835205 C-17.77133995 477.7111631 -32.83032797 477.02669163 -48.3125 473.375 C-49.78468994 473.05354004 -49.78468994 473.05354004 -51.28662109 472.72558594 C-88.42635835 464.60625436 -122.88369113 448.53308965 -152.3125 424.375 C-152.9199707 423.88177246 -153.52744141 423.38854492 -154.15332031 422.88037109 C-167.43741127 412.03953937 -179.93255623 400.05341782 -190.3125 386.375 C-190.7451416 385.80813477 -191.1777832 385.24126953 -191.62353516 384.65722656 C-197.62454898 376.76082432 -203.282281 368.73439747 -208.27490234 360.15185547 C-208.99609764 358.91682974 -209.7262707 357.68702062 -210.46337891 356.46142578 C-227.03014317 328.85904811 -235.98472554 298.11406183 -240.3125 266.375 C-240.415625 265.6938916 -240.51875 265.0127832 -240.625 264.31103516 C-241.72391849 256.18492536 -241.55647918 247.93514761 -241.5625 239.75 C-241.56317474 238.92619843 -241.56384949 238.10239685 -241.56454468 237.25363159 C-241.54702862 223.7595587 -240.8495357 210.65947828 -238.3125 197.375 C-238.14621094 196.48425781 -237.97992188 195.59351563 -237.80859375 194.67578125 C-226.70650755 137.02717069 -194.06429879 83.03917333 -146.3125 48.375 C-145.66490723 47.89369629 -145.01731445 47.41239258 -144.35009766 46.91650391 C-133.8227393 39.09811554 -122.9532802 32.40155511 -111.3125 26.375 C-110.24370605 25.80918213 -110.24370605 25.80918213 -109.15332031 25.23193359 C-87.20991898 13.7108988 -62.72419941 6.32325944 -38.3125 2.375 C-37.25506592 2.19243652 -36.19763184 2.00987305 -35.1081543 1.82177734 C-23.43016298 0.00776749 -11.79463447 -0.02159143 0 0 Z " fill="#2A2B7D" transform="translate(254.3125,18.625)"/>
<path d="M0 0 C-0.92039062 0.52207031 -1.84078125 1.04414062 -2.7890625 1.58203125 C-12.18296197 7.0055844 -20.67691653 13.05642041 -29 20 C-29.61327148 20.51030762 -30.22654297 21.02061523 -30.85839844 21.54638672 C-48.56606008 36.34866997 -64.48989137 52.82497322 -67 77 C-67.16064123 80.95933391 -67.18505718 84.91275372 -67.1875 88.875 C-67.19974609 89.91269531 -67.21199219 90.95039063 -67.22460938 92.01953125 C-67.23649567 98.30341931 -66.66002104 103.94213291 -65 110 C-64.77699219 110.91007812 -64.55398437 111.82015625 -64.32421875 112.7578125 C-59.53832282 130.55077527 -52.51761792 146.77999795 -44.4453125 163.3046875 C-44.13603317 163.93931915 -43.82675385 164.57395081 -43.50810242 165.22781372 C-41.97417452 168.37379346 -40.4321887 171.51524114 -38.87329102 174.64892578 C-35.28131849 181.96820736 -32.40492938 189.21624415 -30 197 C-29.46500362 198.54523058 -28.92744166 200.08957648 -28.38671875 201.6328125 C-21.50277227 222.41049253 -19.45913139 247.93684573 -26 269 C-17.0651889 262.94048715 -9.09774811 255.63887683 -6 245 C-5.49093384 240.40231751 -5.53080675 235.8704266 -5.625 231.25 C-5.62628906 230.0640625 -5.62757813 228.878125 -5.62890625 227.65625 C-5.70797199 219.60911473 -6.60843748 211.91669337 -8 204 C-8.31517297 201.97958182 -8.62802547 199.95879887 -8.9375 197.9375 C-9.58658738 194.06813416 -10.38976499 190.29714897 -11.375 186.5 C-11.92261154 184.33482822 -12.46347589 182.16794583 -13 180 C-13.17354004 179.30438965 -13.34708008 178.6087793 -13.52587891 177.89208984 C-18.45597944 157.62197499 -19.60424567 138.37970636 -11 119 C-10.61714844 118.13632813 -10.23429688 117.27265625 -9.83984375 116.3828125 C-8.69042442 114.13341124 -7.41409872 112.09388396 -6 110 C-4.95392578 108.4221875 -4.95392578 108.4221875 -3.88671875 106.8125 C17.81311876 74.87848384 50.95594792 53.69075273 87.86328125 43.34765625 C90 43 90 43 93 44 C92.00742187 44.58265625 91.01484375 45.1653125 89.9921875 45.765625 C71.24715413 56.99407409 51.86399133 71.56700246 45.1875 93.25 C38.60903138 122.77749422 49.15766697 156.07127364 64.92578125 181.05078125 C67.17605553 184.25032378 69.55728008 187.32237465 72 190.375 C81.8977267 202.88189842 91.36779346 215.58238786 100 229 C100.36609375 229.56315918 100.7321875 230.12631836 101.109375 230.70654297 C106.16376776 238.51017744 110.46124733 246.4004505 114 255 C114.27650391 255.6290625 114.55300781 256.258125 114.83789062 256.90625 C125.21739063 280.89859312 121.01702426 309.94658921 111.87988281 333.79589844 C96.67287016 371.88938074 67.94703812 400.75730971 30.38671875 417.0390625 C20.49892217 421.14912085 10.50111435 423.9686369 0 426 C-1.09957031 426.22558594 -2.19914063 426.45117188 -3.33203125 426.68359375 C-19.10590414 429.44926675 -36.33625996 429.14592466 -52 426 C-52.81194824 425.84934082 -53.62389648 425.69868164 -54.46044922 425.54345703 C-97.70372476 417.47168908 -145.90993842 395.73450931 -172.234375 358.87109375 C-177 351.560625 -177 351.560625 -177 349 C-176.00742188 348.72027344 -175.01484375 348.44054687 -173.9921875 348.15234375 C-151.00981357 341.46386904 -131.13160779 329.3887495 -119.33203125 307.97265625 C-108.6081028 286.97493955 -105.14466419 261.91896122 -112 239 C-113.15389208 236.06364691 -114.39049459 233.17050333 -115.63793945 230.27270508 C-119.57159878 220.82106441 -122.6113647 210.98693156 -125.87988281 201.28759766 C-126.76367029 198.69363902 -127.67428859 196.11570018 -128.6171875 193.54296875 C-137.32241758 168.58977817 -139.20339753 137.89018795 -134 112 C-133.85103271 111.19965332 -133.70206543 110.39930664 -133.54858398 109.57470703 C-132.44718361 104.06830145 -130.64229964 99.03118672 -128.4375 93.875 C-128.08598877 93.05241699 -127.73447754 92.22983398 -127.37231445 91.38232422 C-109.56310034 50.78218774 -71.05490126 23.79881633 -31.15234375 7.20703125 C-27.55735202 5.83051025 -23.95033592 4.67968323 -20.2421875 3.65234375 C-18.0191947 3.00558452 -15.90290296 2.22397494 -13.75 1.375 C-8.78207289 -0.44657327 -5.10993033 -1.4412624 0 0 Z " fill="#EC1B2E" transform="translate(282,46)"/>
<path d="M0 0 C-4.95 2.475 -4.95 2.475 -10 5 C-10 4.34 -10 3.68 -10 3 C-10.99 2.34 -11.98 1.68 -13 1 C-11.58622218 0.63447197 -10.16879424 0.28304505 -8.75 -0.0625 C-7.96109375 -0.25972656 -7.1721875 -0.45695312 -6.359375 -0.66015625 C-4 -1 -4 -1 0 0 Z " fill="#D11C39" transform="translate(282,46)"/>
<path d="M0 0 C0.45375 0.495 0.9075 0.99 1.375 1.5 C2.87635519 3.22609337 2.87635519 3.22609337 5 3 C3.86695008 6.39914975 2.87481525 7.05254451 0 9 C-0.66 8.67 -1.32 8.34 -2 8 C-1.34 5.36 -0.68 2.72 0 0 Z " fill="#442973" transform="translate(257,307)"/>
<path d="M0 0 C1.60495567 0.11442461 3.20898119 0.24194694 4.8125 0.375 C5.70582031 0.44460938 6.59914062 0.51421875 7.51953125 0.5859375 C10 1 10 1 13 3 C9.7 3 6.4 3 3 3 C3 2.34 3 1.68 3 1 C2.01 0.67 1.02 0.34 0 0 Z " fill="#602667" transform="translate(217,469)"/>
<path d="M0 0 C1 3 1 3 -0.4375 6.1875 C-1.2109375 7.5796875 -1.2109375 7.5796875 -2 9 C-2.66 9 -3.32 9 -4 9 C-2.94124926 5.59687262 -1.99097846 2.98646769 0 0 Z " fill="#422973" transform="translate(224,95)"/>
</svg>
